<svg width="148" height="148" viewBox="0 0 148 148" fill="none" xmlns="http://www.w3.org/2000/svg"><path d="M74 86.6854C64.9878 86.6854 57.2729 83.4766 50.8552 77.0588C44.4374 70.6411 41.2286 62.9261 41.2286 53.914C41.2286 44.9019 44.4374 37.1869 50.8552 30.7692C57.2729 24.3514 64.9878 21.1426 74 21.1426C83.0121 21.1426 90.7271 24.3514 97.1448 30.7692C103.563 37.1869 106.771 44.9019 106.771 53.914C106.771 62.9261 103.563 70.6411 97.1448 77.0588C90.7271 83.4766 83.0121 86.6854 74 86.6854ZM8.45715 152.228V129.288C8.45715 124.646 9.65331 120.377 12.0456 116.483C14.4379 112.589 17.6113 109.62 21.5657 107.577C30.0317 103.344 38.6342 100.168 47.3732 98.0489C56.1123 95.9297 64.9878 94.8728 74 94.8783C83.0121 94.8783 91.8877 95.9379 100.627 98.0571C109.366 100.176 117.968 103.35 126.434 107.577C130.394 109.625 133.57 112.597 135.963 116.491C138.355 120.385 139.548 124.651 139.543 129.288V152.228H8.45715Z" fill="#7477D7"/></svg>
