<svg width="252" height="57" viewBox="0 0 252 57" fill="none" xmlns="http://www.w3.org/2000/svg">
<path d="M27.1306 0.959041C25.3739 2.01303 24.0188 4.57272 24.0188 6.68071C24.0188 8.53774 25.5245 11.9507 26.5785 12.5028C28.2348 13.4062 29.9914 13.0548 31.8484 11.3986C35.964 7.78489 36.1146 2.51493 32.1998 0.507331C30.5937 -0.295711 28.9876 -0.14514 27.1306 0.959041Z" fill="#DE2C46"/>
<path d="M114.863 11.4991C114.311 12.0512 113.859 12.9546 113.859 13.5067C113.859 14.7614 115.565 16.5181 116.77 16.5181C118.376 16.5181 119.882 15.0626 119.882 13.5067C119.882 10.696 116.87 9.49146 114.863 11.4991Z" fill="#2C2F8E"/>
<path d="M11.4211 12.8539C2.03558 15.9657 -2.78266 27.8105 1.68425 36.8949C2.83862 39.3041 5.9504 42.8676 5.29793 41.0607C3.9428 37.1459 4.84622 30.822 7.45611 26.7064L8.96181 24.2972V26.606C9.012 35.59 13.1276 46.3307 18.7489 51.952C25.2234 58.4265 30.4431 58.3763 37.0682 51.701C41.9367 46.8326 45.199 39.2539 46.3032 30.3201L46.9055 25.8531L48.0097 27.66C50.3686 31.4242 51.272 37.1459 50.1176 41.0607L49.6157 42.7672L51.1716 41.3117C51.9747 40.5086 53.38 38.4006 54.2834 36.5938C55.7389 33.6828 55.8895 32.8797 55.8895 29.0653C55.8393 24.1467 54.5344 20.5832 51.4728 17.1703C46.1526 11.298 36.5663 10.3444 30.0918 15.0121L28.0842 16.5178L25.7755 14.9619C21.4591 12.0509 16.139 11.2478 11.4211 12.8539ZM25.8257 26.606L27.5321 28.2623L28.8873 26.9573C32.6515 23.444 36.5663 23.8957 39.7785 28.2121C42.1374 31.4242 40.431 38.1497 36.215 42.2151C33.7055 44.6242 29.0378 47.6356 27.8333 47.6356C25.1732 47.6356 17.5945 41.663 15.7877 38.1497C13.6797 34.1345 13.9306 29.517 16.3899 26.8569C18.1968 24.9497 19.3511 24.498 21.9108 24.749C23.5671 24.8995 24.5207 25.3512 25.8257 26.606Z" fill="#DE2C46"/>
<path d="M249.422 14.2088C248.971 14.7609 249.021 15.062 249.623 15.7145C250.627 16.7183 251.982 16.1662 251.781 14.8111C251.58 13.5563 250.276 13.205 249.422 14.2088Z" fill="#DE2C46"/>
<path d="M212.985 17.1702C212.834 17.5215 212.784 23.7451 212.834 31.0728L212.985 44.3732L214.139 44.5237L215.243 44.6743V34.2348C215.243 24.7489 215.344 23.6447 216.247 22.1892C217.301 20.4325 219.559 19.0272 221.366 19.0272C223.274 19.0272 225.883 20.6835 226.887 22.5405C227.69 24.0462 227.791 25.5519 227.791 34.3853C227.791 42.0142 227.941 44.5739 228.443 44.7245C230.2 45.377 230.3 44.7245 230.3 34.1344C230.3 24.0964 230.35 23.6447 231.455 21.9884C233.061 19.5793 236.022 18.5755 238.581 19.5793C239.635 19.9808 240.94 20.9344 241.543 21.6873C242.547 22.9922 242.597 23.8454 242.747 33.7329C242.898 44.4234 243.149 45.8287 244.705 44.5237C245.207 44.1222 245.357 41.4621 245.357 33.6325C245.357 24.4979 245.257 23.0926 244.404 21.5367C242.045 17.0698 237.026 15.3633 232.559 17.5215C231.304 18.1238 230.049 19.0774 229.748 19.6295C229.196 20.5831 229.146 20.5831 227.64 19.1276C224.779 16.3671 221.166 15.7648 217.401 17.4713C215.394 18.4249 215.344 18.4249 215.093 17.4713C214.791 16.4173 213.336 16.1664 212.985 17.1702Z" fill="#DE2C46"/>
<path d="M249.623 18.6256C249.472 18.9769 249.422 24.9495 249.472 31.8255C249.623 43.9715 249.673 44.373 250.627 44.373C251.58 44.373 251.631 44.0217 251.631 31.3236C251.631 19.278 251.58 18.2742 250.727 18.1237C250.275 18.0233 249.774 18.2742 249.623 18.6256Z" fill="#DE2C46"/>
<path d="M72.703 20.5333C71.7494 21.4869 71.6992 22.1896 71.6992 32.0268C71.6992 42.4162 71.6992 42.5667 72.9038 43.9721C73.9578 45.1766 74.2589 45.277 75.5137 44.8755C77.7722 44.0724 78.2239 42.5667 78.2239 35.2892C78.2239 26.004 78.9266 24.5485 83.1927 24.5485C86.1539 24.5485 86.4049 25.3516 86.7562 35.239C86.957 42.8679 87.1076 43.7713 87.9608 44.4238C89.3159 45.3774 90.5707 45.3272 91.7752 44.1226C92.6787 43.2192 92.779 42.4664 92.779 36.6443C92.779 33.0808 92.9296 29.5173 93.0802 28.6139C93.5821 26.255 95.5395 24.5485 97.8482 24.5485C100.91 24.5485 101.311 25.8535 101.311 35.3394C101.311 42.4664 101.412 43.2192 102.315 44.1226C103.62 45.4276 105.427 45.3774 106.631 44.0724C107.485 43.1188 107.585 42.1652 107.585 33.8839C107.585 25.3014 107.535 24.6991 106.431 22.9926C105.226 20.985 102.365 19.5295 99.7554 19.5295C97.8984 19.5295 94.887 20.7341 93.4315 22.1394L92.2771 23.2436L90.8718 21.8884C87.5593 18.7265 82.3897 18.8269 78.8764 22.1394L77.7722 23.1934L77.4209 21.8383C76.8688 19.5295 74.4095 18.8269 72.703 20.5333Z" fill="#2C2F8E"/>
<path d="M115.064 20.2318C114.16 20.8842 114.11 21.7375 113.959 31.4241C113.859 37.7481 114.01 42.4659 114.311 43.269C114.963 44.9754 116.971 45.5275 118.627 44.4234L119.882 43.6203V32.3276C119.882 21.2857 119.882 21.085 118.778 20.3321C117.372 19.3283 116.318 19.3283 115.064 20.2318Z" fill="#2C2F8E"/>
<path d="M127.259 20.4325C126.507 21.2355 126.406 22.8416 126.406 32.2271C126.406 42.4659 126.456 43.1686 127.41 44.1222C127.962 44.6743 128.866 45.126 129.418 45.126C129.97 45.126 130.873 44.6743 131.425 44.1222C132.329 43.2188 132.429 42.4659 132.429 36.694C132.429 29.3663 132.931 27.0074 134.788 25.5519C136.545 24.1465 139.958 24.1967 141.263 25.6021C142.116 26.5055 142.266 27.71 142.467 35.1883C142.718 42.8674 142.818 43.7708 143.672 44.4233C144.926 45.3267 145.98 45.3267 147.386 44.3229C148.44 43.5701 148.49 43.3191 148.49 34.5359C148.49 26.4051 148.389 25.3009 147.436 23.4941C145.127 18.9268 138.552 18.2743 133.834 22.0386L131.927 23.5944V22.3899C131.927 19.9306 128.866 18.6758 127.259 20.4325Z" fill="#2C2F8E"/>
<path d="M155.868 20.4325C155.115 21.2355 155.015 22.8416 155.015 32.2271C155.015 42.4659 155.065 43.1686 156.019 44.1222C156.571 44.6743 157.474 45.126 158.026 45.126C158.578 45.126 159.482 44.6743 160.034 44.1222C160.937 43.2188 161.038 42.4659 161.038 36.694C161.038 29.3663 161.54 27.0074 163.397 25.5519C165.153 24.1465 168.566 24.1967 169.871 25.6021C170.724 26.5055 170.875 27.71 171.076 35.1883C171.327 42.8674 171.427 43.7708 172.28 44.4233C173.535 45.3267 174.589 45.3267 175.994 44.3229C177.048 43.5701 177.099 43.3191 177.099 34.4857C177.099 26.104 176.998 25.3009 175.994 23.4941C173.435 18.9268 167.161 18.2743 162.443 22.0386L160.536 23.5944V22.3899C160.536 19.9306 157.474 18.6758 155.868 20.4325Z" fill="#2C2F8E"/>
<path d="M189.947 20.2818C187.588 21.135 185.38 23.1426 183.975 25.8027C182.469 28.5631 182.419 35.9411 183.824 38.6011C186.283 43.2186 189.245 44.8247 195.167 44.8247C198.58 44.8247 199.835 44.6239 201.541 43.7205C204.302 42.265 205.807 40.3076 205.607 38.4004C205.356 36.0415 203.749 36.0916 200.738 38.551C196.823 41.6125 193.561 41.8635 190.951 39.2536C189.646 37.9989 188.442 34.7867 188.943 33.9837C189.094 33.7829 192.507 33.5821 196.572 33.5821C205.356 33.5821 206.209 33.281 206.209 29.9183C206.159 25.6521 202.846 21.1852 198.831 20.081C196.221 19.3282 192.306 19.4285 189.947 20.2818ZM196.924 24.2468C198.68 24.9996 200.186 27.208 200.186 29.065C200.186 30.0186 199.885 30.0688 194.464 30.0688H188.692L189.144 28.6133C189.847 26.154 190.7 24.9996 192.306 24.297C194.364 23.3936 194.816 23.3936 196.924 24.2468Z" fill="#2C2F8E"/>
</svg>
