<svg width="56" height="57" viewBox="0 0 56 57" fill="none" xmlns="http://www.w3.org/2000/svg">
<path d="M27.1306 0.959041C25.3739 2.01303 24.0188 4.57272 24.0188 6.68071C24.0188 8.53774 25.5245 11.9507 26.5785 12.5028C28.2348 13.4062 29.9914 13.0548 31.8484 11.3986C35.964 7.78489 36.1146 2.51493 32.1998 0.507331C30.5937 -0.295711 28.9876 -0.14514 27.1306 0.959041Z" fill="#DE2C46"/>
<path d="M11.4211 12.8539C2.03558 15.9657 -2.78266 27.8105 1.68425 36.8949C2.83862 39.3041 5.9504 42.8676 5.29793 41.0607C3.9428 37.1459 4.84622 30.822 7.45611 26.7064L8.96181 24.2972V26.606C9.012 35.59 13.1276 46.3307 18.7489 51.952C25.2234 58.4265 30.4431 58.3763 37.0682 51.701C41.9367 46.8326 45.199 39.2539 46.3032 30.3201L46.9055 25.8531L48.0097 27.66C50.3686 31.4242 51.272 37.1459 50.1176 41.0607L49.6157 42.7672L51.1716 41.3117C51.9747 40.5086 53.38 38.4006 54.2834 36.5938C55.7389 33.6828 55.8895 32.8797 55.8895 29.0653C55.8393 24.1467 54.5344 20.5832 51.4728 17.1703C46.1526 11.298 36.5663 10.3444 30.0918 15.0121L28.0842 16.5178L25.7755 14.9619C21.4591 12.0509 16.139 11.2478 11.4211 12.8539ZM25.8257 26.606L27.5321 28.2623L28.8873 26.9573C32.6515 23.444 36.5663 23.8957 39.7785 28.2121C42.1374 31.4242 40.431 38.1497 36.215 42.2151C33.7055 44.6242 29.0378 47.6356 27.8333 47.6356C25.1732 47.6356 17.5945 41.663 15.7877 38.1497C13.6797 34.1345 13.9306 29.517 16.3899 26.8569C18.1968 24.9497 19.3511 24.498 21.9108 24.749C23.5671 24.8995 24.5207 25.3512 25.8257 26.606Z" fill="#DE2C46"/>
</svg>
